<svg xmlns="http://www.w3.org/2000/svg" viewBox="0 0 64 64"><defs><style>.cls-1{fill:#0072ff;}</style></defs><title>Rainbow</title><g id="Layer_2" data-name="Layer 2"><path class="cls-1" d="M5.73,32H10.4a1.66,1.66,0,0,0,1.65-1.52,20,20,0,0,1,39.89,0A1.66,1.66,0,0,0,53.6,32h4.68a1.68,1.68,0,0,0,1.67-1.8,28,28,0,0,0-55.89,0A1.68,1.68,0,0,0,5.73,32Z"/><path class="cls-1" d="M32,28a4,4,0,0,0-3.71,2.49,1.09,1.09,0,0,0,1,1.51H34.7a1.09,1.09,0,0,0,1-1.51A4,4,0,0,0,32,28Z"/><path class="cls-1" d="M39.83,30.35A2.09,2.09,0,0,0,41.89,32h3.83a2.12,2.12,0,0,0,2.1-2.42,16,16,0,0,0-31.63,0A2.12,2.12,0,0,0,18.28,32h3.83a2.09,2.09,0,0,0,2.06-1.65,8,8,0,0,1,15.66,0Z"/><path class="cls-1" d="M58,36H6a2,2,0,0,0,0,4H58a2,2,0,0,0,0-4Z"/><path class="cls-1" d="M52,46a2,2,0,0,0-2-2H14a2,2,0,0,0,0,4H50A2,2,0,0,0,52,46Z"/><path class="cls-1" d="M22,52a2,2,0,0,0,0,4H42a2,2,0,0,0,0-4Z"/></g></svg>